<svg width="24" height="24" viewBox="0 0 24 24" fill="none" xmlns="http://www.w3.org/2000/svg">
<path d="M10 7.07143C10 6.69666 10.2985 6.39286 10.6667 6.39286L15.3333 6.39286C15.7015 6.39286 16 6.69666 16 7.07143C16 7.44619 15.7015 7.75 15.3333 7.75H10.6667C10.2985 7.75 10 7.44619 10 7.07143Z" fill="#3A8FD3"/>
<path d="M10.6667 9.10714C10.2985 9.10714 10 9.41095 10 9.78571C10 10.1605 10.2985 10.4643 10.6667 10.4643H13.3333C13.7015 10.4643 14 10.1605 14 9.78571C14 9.41095 13.7015 9.10714 13.3333 9.10714H10.6667Z" fill="#3A8FD3"/>
<path fill-rule="evenodd" clip-rule="evenodd" d="M18.6667 12.5V5.03571C18.6667 3.91142 17.7712 3 16.6667 3H6.66667L4 5.71429V19.9643C4 21.0886 4.89543 22 6 22H16.6667C17.7712 22 18.6667 21.0886 18.6667 19.9643V19.2857H19.3333C19.7015 19.2857 20 18.9819 20 18.6071V13.1786C20 12.8038 19.7015 12.5 19.3333 12.5H18.6667ZM17.3333 12.5V5.03571C17.3333 4.66095 17.0349 4.35714 16.6667 4.35714H8.66667V7.75H5.33333V19.9643C5.33333 20.3391 5.63181 20.6429 6 20.6429H16.6667C17.0349 20.6429 17.3333 20.3391 17.3333 19.9643V19.2857H7.33333C6.96514 19.2857 6.66667 18.9819 6.66667 18.6071V13.1786C6.66667 12.8038 6.96514 12.5 7.33333 12.5H17.3333ZM7.21895 4.35714H7.33333V6.39286H5.33333V6.27643L7.21895 4.35714Z" fill="#3A8FD3"/>
<path d="M8 16.9599V14.0401H8.87864C9.14155 14.0401 9.37449 14.0976 9.57747 14.2126C9.7818 14.3275 9.93982 14.4906 10.0515 14.7019C10.1632 14.9131 10.2191 15.1551 10.2191 15.4278V15.5742C10.2191 15.8509 10.1625 16.0943 10.0495 16.3041C9.93778 16.514 9.77771 16.6758 9.56929 16.7894C9.36223 16.9031 9.12452 16.9599 8.85616 16.9599H8ZM8.51697 14.4492V16.5548H8.85412C9.1252 16.5548 9.33294 16.4719 9.47734 16.3061C9.6231 16.139 9.69734 15.8997 9.70007 15.5882V15.4258C9.70007 15.109 9.62991 14.867 9.4896 14.6999C9.34929 14.5328 9.14564 14.4492 8.87864 14.4492H8.51697Z" fill="white"/>
<path d="M13.2339 15.5762C13.2339 15.8623 13.1835 16.1136 13.0827 16.3302C12.9819 16.5455 12.8375 16.7112 12.6495 16.8275C12.4629 16.9425 12.2477 17 12.0038 17C11.7627 17 11.5475 16.9425 11.3581 16.8275C11.1701 16.7112 11.0244 16.5461 10.9208 16.3322C10.8187 16.1183 10.7669 15.8717 10.7655 15.5922V15.4278C10.7655 15.143 10.8166 14.8917 10.9188 14.6738C11.0223 14.4559 11.1674 14.2894 11.354 14.1745C11.542 14.0582 11.7573 14 11.9997 14C12.2422 14 12.4568 14.0575 12.6434 14.1725C12.8314 14.2861 12.9765 14.4505 13.0786 14.6658C13.1808 14.8797 13.2326 15.129 13.2339 15.4138V15.5762ZM12.7169 15.4238C12.7169 15.1003 12.6543 14.8523 12.529 14.6798C12.405 14.5074 12.2286 14.4211 11.9997 14.4211C11.7763 14.4211 11.6013 14.5074 11.4746 14.6798C11.3493 14.8509 11.2852 15.0936 11.2825 15.4078V15.5762C11.2825 15.8971 11.3459 16.1451 11.4725 16.3202C11.6006 16.4953 11.7777 16.5829 12.0038 16.5829C12.2327 16.5829 12.4084 16.4973 12.531 16.3262C12.655 16.1551 12.7169 15.9051 12.7169 15.5762V15.4238Z" fill="white"/>
<path d="M16.1445 16.0094C16.1146 16.3209 15.9974 16.5642 15.7931 16.7393C15.5888 16.9131 15.317 17 14.9778 17C14.7408 17 14.5317 16.9452 14.3505 16.8356C14.1707 16.7246 14.0317 16.5675 13.9336 16.3643C13.8356 16.1611 13.7845 15.9251 13.7804 15.6564V15.3837C13.7804 15.1083 13.8301 14.8656 13.9296 14.6557C14.029 14.4459 14.1713 14.2841 14.3566 14.1705C14.5432 14.0568 14.7585 14 15.0023 14C15.3306 14 15.5949 14.0876 15.7951 14.2627C15.9954 14.4378 16.1118 14.6852 16.1445 15.0047H15.6296C15.6051 14.7948 15.5424 14.6437 15.4416 14.5515C15.3422 14.4579 15.1957 14.4111 15.0023 14.4111C14.7775 14.4111 14.6045 14.492 14.4833 14.6537C14.3634 14.8142 14.3021 15.0501 14.2994 15.3616V15.6203C14.2994 15.9358 14.3566 16.1765 14.471 16.3422C14.5868 16.508 14.7557 16.5909 14.9778 16.5909C15.1808 16.5909 15.3333 16.5461 15.4355 16.4566C15.5377 16.367 15.6024 16.2179 15.6296 16.0094H16.1445Z" fill="white"/>
<path d="M17.7576 15.0949L18.3829 14.0401H18.9796L18.0805 15.488L19 16.9599H18.3972L17.7576 15.889L17.116 16.9599H16.5153L17.4368 15.488L16.5357 14.0401H17.1324L17.7576 15.0949Z" fill="white"/>
</svg>
