<svg width="24" height="24" viewBox="0 0 24 24" fill="none" xmlns="http://www.w3.org/2000/svg">
<path fill-rule="evenodd" clip-rule="evenodd" d="M18.6667 18.4286V19.0714C18.6667 20.1365 17.7712 21 16.6667 21H6C4.89543 21 4 20.1365 4 19.0714V5.57143L6.66667 3H16.6667C17.7712 3 18.6667 3.86345 18.6667 4.92857V12H19.3333C19.7015 12 20 12.2878 20 12.6429V17.7857C20 18.1408 19.7015 18.4286 19.3333 18.4286H18.6667ZM17.3333 18.4286V19.0714C17.3333 19.4265 17.0349 19.7143 16.6667 19.7143H6C5.63181 19.7143 5.33333 19.4265 5.33333 19.0714V7.5H8.66667V4.28571H16.6667C17.0349 4.28571 17.3333 4.57353 17.3333 4.92857V12H7.33333C6.96514 12 6.66667 12.2878 6.66667 12.6429V17.7857C6.66667 18.1408 6.96514 18.4286 7.33333 18.4286H17.3333ZM7.33333 6.21429H5.33333V6.10399L7.21895 4.28571H7.33333V6.21429Z" fill="#E8513D"/>
<path fill-rule="evenodd" clip-rule="evenodd" d="M10.3613 16.5598L10.3613 15.5409L10.9492 15.5409C11.2786 15.5409 11.5345 15.4662 11.7168 15.3168C11.9004 15.1674 11.9922 14.9583 11.9922 14.6896C11.9922 14.4272 11.8984 14.2163 11.7109 14.0568C11.5247 13.8974 11.2728 13.8176 10.9551 13.8176L9.86719 13.8176L9.86719 16.5598H10.3613ZM10.9551 15.1586L10.3613 15.1586V14.2018L10.9688 14.2018C11.1328 14.2043 11.2617 14.2502 11.3555 14.3393C11.4492 14.4272 11.4961 14.5452 11.4961 14.6934C11.4961 14.8441 11.4499 14.9596 11.3574 15.0399C11.265 15.119 11.1309 15.1586 10.9551 15.1586Z" fill="white"/>
<path fill-rule="evenodd" clip-rule="evenodd" d="M12.5293 13.8177V16.5599L13.3477 16.5599C13.6042 16.5599 13.8314 16.5065 14.0293 16.3998C14.2285 16.2931 14.3815 16.1411 14.4883 15.944C14.5964 15.7469 14.6504 15.5184 14.6504 15.2585V15.121C14.6504 14.8648 14.597 14.6376 14.4902 14.4392C14.3835 14.2408 14.2324 14.0876 14.0371 13.9797C13.8431 13.8717 13.6204 13.8177 13.3691 13.8177L12.5293 13.8177ZM13.0234 16.1794V14.2019L13.3691 14.2019C13.6243 14.2019 13.819 14.2804 13.9531 14.4373C14.0872 14.5943 14.1543 14.8215 14.1543 15.1191L14.1543 15.2717C14.1517 15.5642 14.0807 15.7889 13.9414 15.9459C13.8034 16.1016 13.6048 16.1794 13.3457 16.1794H13.0234Z" fill="white"/>
<path d="M15.7567 15.3978H16.9012L16.9012 15.0174H15.7567V14.2019L17.0692 14.2019L17.0692 13.8177L15.2626 13.8177L15.2626 16.5599L15.7567 16.5599V15.3978Z" fill="white"/>
</svg>
